<?xml version="1.0" encoding="utf-8"?>
<!-- Generator: Adobe Illustrator 22.0.1, SVG Export Plug-In . SVG Version: 6.00 Build 0)  -->
<svg version="1.1" xmlns="http://www.w3.org/2000/svg" xmlns:xlink="http://www.w3.org/1999/xlink" x="0px" y="0px"
	 viewBox="0 0 10 10" style="enable-background:new 0 0 10 10;" xml:space="preserve">
<style type="text/css">
	.st0{display:none;}
	.st1{display:inline;fill:#00FF00;}
	.st2{fill:none;}
	.st3{fill:#FBB03B;}
	.st4{fill:#F7931E;}
	.st5{fill:#F15A24;}
	.st6{fill:#F4F2D0;}
	.st7{fill:#F4F3E6;}
	.st8{display:inline;}
	.st9{fill:#ED1C24;}
	.st10{fill:#FCEE21;}
	.st11{fill:#FFDE1F;}
</style>
<g id="Layer_2" class="st0">
	<rect x="-1" y="-11" class="st1" width="12" height="12"/>
	<rect x="4" y="-1" class="st1" width="12" height="12"/>
	<rect x="-1" y="9" class="st1" width="12" height="12"/>
</g>
<g id="Top">
</g>
<g id="Top2" class="st0">
</g>
<g id="Middle">
	<g>
		<rect class="st2" width="1" height="1"/>
	</g>
	<g>
		<rect x="1" class="st2" width="1" height="1"/>
	</g>
	<g>
		<rect y="1" class="st2" width="1" height="1"/>
	</g>
	<g>
		<rect x="1" y="1" class="st2" width="1" height="1"/>
	</g>
	<g>
		<rect x="2" class="st7" width="1" height="1"/>
	</g>
	<g>
		<rect x="3" class="st7" width="1" height="1"/>
	</g>
	<g>
		<rect x="2" y="1" class="st7" width="1" height="1"/>
	</g>
	<g>
		<rect x="3" y="1" class="st7" width="1" height="1"/>
	</g>
	<g>
		<rect y="2" class="st2" width="1" height="1"/>
	</g>
	<g>
		<rect x="1" y="2" class="st2" width="1" height="1"/>
	</g>
	<g>
		<rect y="3" class="st2" width="1" height="1"/>
	</g>
	<g>
		<rect x="1" y="3" class="st2" width="1" height="1"/>
	</g>
	<g>
		<rect x="2" y="2" class="st7" width="1" height="1"/>
	</g>
	<g>
		<rect x="3" y="2" class="st7" width="1" height="1"/>
	</g>
	<g>
		<rect x="2" y="3" class="st7" width="1" height="1"/>
	</g>
	<g>
		<rect x="3" y="3" class="st7" width="1" height="1"/>
	</g>
	<g>
		<rect x="4" class="st7" width="1" height="1"/>
	</g>
	<g>
		<rect x="5" class="st7" width="1" height="1"/>
	</g>
	<g>
		<rect x="4" y="1" class="st7" width="1" height="1"/>
	</g>
	<g>
		<rect x="5" y="1" class="st7" width="1" height="1"/>
	</g>
	<g>
		<rect x="6" class="st7" width="1" height="1"/>
	</g>
	<g>
		<rect x="7" class="st6" width="1" height="1"/>
	</g>
	<g>
		<rect x="6" y="1" class="st7" width="1" height="1"/>
	</g>
	<g>
		<rect x="7" y="1" class="st6" width="1" height="1"/>
	</g>
	<g>
		<rect x="4" y="2" class="st7" width="1" height="1"/>
	</g>
	<g>
		<rect x="5" y="2" class="st7" width="1" height="1"/>
	</g>
	<g>
		<rect x="4" y="3" class="st7" width="1" height="1"/>
	</g>
	<g>
		<rect x="5" y="3" class="st7" width="1" height="1"/>
	</g>
	<g>
		<rect x="6" y="2" class="st7" width="1" height="1"/>
	</g>
	<g>
		<rect x="7" y="2" class="st6" width="1" height="1"/>
	</g>
	<g>
		<rect x="6" y="3" class="st7" width="1" height="1"/>
	</g>
	<g>
		<rect x="7" y="3" class="st6" width="1" height="1"/>
	</g>
	<g>
		<rect y="4" class="st2" width="1" height="1"/>
	</g>
	<g>
		<rect x="1" y="4" class="st2" width="1" height="1"/>
	</g>
	<g>
		<rect y="5" class="st2" width="1" height="1"/>
	</g>
	<g>
		<rect x="1" y="5" class="st2" width="1" height="1"/>
	</g>
	<g>
		<rect x="2" y="4" class="st7" width="1" height="1"/>
	</g>
	<g>
		<rect x="3" y="4" class="st7" width="1" height="1"/>
	</g>
	<g>
		<rect x="2" y="5" class="st7" width="1" height="1"/>
	</g>
	<g>
		<rect x="3" y="5" class="st7" width="1" height="1"/>
	</g>
	<g>
		<rect y="6" class="st2" width="1" height="1"/>
	</g>
	<g>
		<rect x="1" y="6" class="st2" width="1" height="1"/>
	</g>
	<g>
		<rect y="7" class="st2" width="1" height="1"/>
	</g>
	<g>
		<rect x="1" y="7" class="st2" width="1" height="1"/>
	</g>
	<g>
		<rect x="2" y="6" class="st7" width="1" height="1"/>
	</g>
	<g>
		<rect x="3" y="6" class="st7" width="1" height="1"/>
	</g>
	<g>
		<rect x="2" y="7" class="st7" width="1" height="1"/>
	</g>
	<g>
		<rect x="3" y="7" class="st7" width="1" height="1"/>
	</g>
	<g>
		<rect x="4" y="4" class="st7" width="1" height="1"/>
	</g>
	<g>
		<rect x="5" y="4" class="st7" width="1" height="1"/>
	</g>
	<g>
		<rect x="4" y="5" class="st7" width="1" height="1"/>
	</g>
	<g>
		<rect x="5" y="5" class="st7" width="1" height="1"/>
	</g>
	<g>
		<rect x="6" y="4" class="st7" width="1" height="1"/>
	</g>
	<g>
		<rect x="7" y="4" class="st6" width="1" height="1"/>
	</g>
	<g>
		<rect x="6" y="5" class="st7" width="1" height="1"/>
	</g>
	<g>
		<rect x="7" y="5" class="st6" width="1" height="1"/>
	</g>
	<g>
		<rect x="4" y="6" class="st7" width="1" height="1"/>
	</g>
	<g>
		<rect x="5" y="6" class="st7" width="1" height="1"/>
	</g>
	<g>
		<rect x="4" y="7" class="st7" width="1" height="1"/>
	</g>
	<g>
		<rect x="5" y="7" class="st7" width="1" height="1"/>
	</g>
	<g>
		<rect x="6" y="6" class="st7" width="1" height="1"/>
	</g>
	<g>
		<rect x="7" y="6" class="st6" width="1" height="1"/>
	</g>
	<g>
		<rect x="6" y="7" class="st7" width="1" height="1"/>
	</g>
	<g>
		<rect x="7" y="7" class="st6" width="1" height="1"/>
	</g>
	<g>
		<rect x="8" class="st2" width="1" height="1"/>
	</g>
	<g>
		<rect x="9" class="st2" width="1" height="1"/>
	</g>
	<g>
		<rect x="8" y="1" class="st2" width="1" height="1"/>
	</g>
	<g>
		<rect x="9" y="1" class="st2" width="1" height="1"/>
	</g>
	<g>
		<rect x="8" y="2" class="st2" width="1" height="1"/>
	</g>
	<g>
		<rect x="9" y="2" class="st2" width="1" height="1"/>
	</g>
	<g>
		<rect x="8" y="3" class="st2" width="1" height="1"/>
	</g>
	<g>
		<rect x="9" y="3" class="st2" width="1" height="1"/>
	</g>
	<g>
		<rect x="8" y="4" class="st2" width="1" height="1"/>
	</g>
	<g>
		<rect x="9" y="4" class="st2" width="1" height="1"/>
	</g>
	<g>
		<rect x="8" y="5" class="st2" width="1" height="1"/>
	</g>
	<g>
		<rect x="9" y="5" class="st2" width="1" height="1"/>
	</g>
	<g>
		<rect x="8" y="6" class="st2" width="1" height="1"/>
	</g>
	<g>
		<rect x="9" y="6" class="st2" width="1" height="1"/>
	</g>
	<g>
		<rect x="8" y="7" class="st2" width="1" height="1"/>
	</g>
	<g>
		<rect x="9" y="7" class="st2" width="1" height="1"/>
	</g>
	<g>
		<rect y="8" class="st2" width="1" height="1"/>
	</g>
	<g>
		<rect x="1" y="8" class="st2" width="1" height="1"/>
	</g>
	<g>
		<rect y="9" class="st2" width="1" height="1"/>
	</g>
	<g>
		<rect x="1" y="9" class="st2" width="1" height="1"/>
	</g>
	<g>
		<rect x="2" y="8" class="st7" width="1" height="1"/>
	</g>
	<g>
		<rect x="3" y="8" class="st7" width="1" height="1"/>
	</g>
	<g>
		<rect x="2" y="9" class="st7" width="1" height="1"/>
	</g>
	<g>
		<rect x="3" y="9" class="st7" width="1" height="1"/>
	</g>
	<g>
		<rect x="4" y="8" class="st7" width="1" height="1"/>
	</g>
	<g>
		<rect x="5" y="8" class="st7" width="1" height="1"/>
	</g>
	<g>
		<rect x="4" y="9" class="st7" width="1" height="1"/>
	</g>
	<g>
		<rect x="5" y="9" class="st7" width="1" height="1"/>
	</g>
	<g>
		<rect x="6" y="8" class="st7" width="1" height="1"/>
	</g>
	<g>
		<rect x="7" y="8" class="st6" width="1" height="1"/>
	</g>
	<g>
		<rect x="6" y="9" class="st7" width="1" height="1"/>
	</g>
	<g>
		<rect x="7" y="9" class="st6" width="1" height="1"/>
	</g>
	<g>
		<rect x="8" y="8" class="st2" width="1" height="1"/>
	</g>
	<g>
		<rect x="9" y="8" class="st2" width="1" height="1"/>
	</g>
	<g>
		<rect x="8" y="9" class="st2" width="1" height="1"/>
	</g>
	<g>
		<rect x="9" y="9" class="st2" width="1" height="1"/>
	</g>
</g>
<g id="Bottom">
</g>
</svg>
