<?xml version="1.0" encoding="utf-8"?>
<!-- Generator: Adobe Illustrator 21.1.0, SVG Export Plug-In . SVG Version: 6.00 Build 0)  -->
<svg version="1.1" xmlns="http://www.w3.org/2000/svg" xmlns:xlink="http://www.w3.org/1999/xlink" x="0px" y="0px"
	 viewBox="0 0 10 10" style="enable-background:new 0 0 10 10;" xml:space="preserve">
<style type="text/css">
	.st0{fill:none;}
	.st1{fill:#6ECAEA;}
	.st2{fill:#29ABE2;}
	.st3{fill:#0071BC;}
</style>
<g id="N_x5F_1">
</g>
<g id="N_x5F_2">
</g>
<g id="NE_x5F_1">
</g>
<g id="NE_x5F_2">
</g>
<g id="E_x5F_1">
</g>
<g id="E_x5F_2">
</g>
<g id="SE_x5F_1">
	<g>
		<rect x="9" class="st0" width="1" height="1"/>
	</g>
	<g>
		<rect x="9" y="1" class="st0" width="1" height="1"/>
	</g>
	<g>
		<rect x="8" class="st0" width="1" height="1"/>
	</g>
	<g>
		<rect x="8" y="1" class="st1" width="1" height="1"/>
	</g>
	<g>
		<rect x="9" y="2" class="st1" width="1" height="1"/>
	</g>
	<g>
		<rect x="9" y="3" class="st1" width="1" height="1"/>
	</g>
	<g>
		<rect x="8" y="2" class="st1" width="1" height="1"/>
	</g>
	<g>
		<rect x="8" y="3" class="st1" width="1" height="1"/>
	</g>
	<g>
		<rect x="7" class="st0" width="1" height="1"/>
	</g>
	<g>
		<rect x="7" y="1" class="st1" width="1" height="1"/>
	</g>
	<g>
		<rect x="6" class="st2" width="1" height="1"/>
	</g>
	<g>
		<rect x="6" y="1" class="st1" width="1" height="1"/>
	</g>
	<g>
		<rect x="7" y="2" class="st1" width="1" height="1"/>
	</g>
	<g>
		<rect x="7" y="3" class="st1" width="1" height="1"/>
	</g>
	<g>
		<rect x="6" y="2" class="st1" width="1" height="1"/>
	</g>
	<g>
		<rect x="6" y="3" class="st1" width="1" height="1"/>
	</g>
	<g>
		<rect x="9" y="4" class="st1" width="1" height="1"/>
	</g>
	<g>
		<rect x="9" y="5" class="st1" width="1" height="1"/>
	</g>
	<g>
		<rect x="8" y="4" class="st1" width="1" height="1"/>
	</g>
	<g>
		<rect x="8" y="5" class="st1" width="1" height="1"/>
	</g>
	<g>
		<rect x="9" y="6" class="st0" width="1" height="1"/>
	</g>
	<g>
		<rect x="9" y="7" class="st0" width="1" height="1"/>
	</g>
	<g>
		<rect x="8" y="6" class="st1" width="1" height="1"/>
	</g>
	<g>
		<rect x="8" y="7" class="st0" width="1" height="1"/>
	</g>
	<g>
		<rect x="7" y="4" class="st1" width="1" height="1"/>
	</g>
	<g>
		<rect x="7" y="5" class="st1" width="1" height="1"/>
	</g>
	<g>
		<rect x="6" y="4" class="st1" width="1" height="1"/>
	</g>
	<g>
		<rect x="6" y="5" class="st1" width="1" height="1"/>
	</g>
	<g>
		<rect x="7" y="6" class="st1" width="1" height="1"/>
	</g>
	<g>
		<rect x="7" y="7" class="st2" width="1" height="1"/>
	</g>
	<g>
		<rect x="6" y="6" class="st1" width="1" height="1"/>
	</g>
	<g>
		<rect x="6" y="7" class="st2" width="1" height="1"/>
	</g>
	<g>
		<rect x="5" class="st2" width="1" height="1"/>
	</g>
	<g>
		<rect x="5" y="1" class="st1" width="1" height="1"/>
	</g>
	<g>
		<rect x="4" class="st2" width="1" height="1"/>
	</g>
	<g>
		<rect x="4" y="1" class="st2" width="1" height="1"/>
	</g>
	<g>
		<rect x="5" y="2" class="st1" width="1" height="1"/>
	</g>
	<g>
		<rect x="5" y="3" class="st1" width="1" height="1"/>
	</g>
	<g>
		<rect x="4" y="2" class="st1" width="1" height="1"/>
	</g>
	<g>
		<rect x="4" y="3" class="st1" width="1" height="1"/>
	</g>
	<g>
		<rect x="3" class="st0" width="1" height="1"/>
	</g>
	<g>
		<rect x="3" y="1" class="st2" width="1" height="1"/>
	</g>
	<g>
		<rect x="2" class="st0" width="1" height="1"/>
	</g>
	<g>
		<rect x="2" y="1" class="st2" width="1" height="1"/>
	</g>
	<g>
		<rect x="3" y="2" class="st2" width="1" height="1"/>
	</g>
	<g>
		<rect x="3" y="3" class="st2" width="1" height="1"/>
	</g>
	<g>
		<rect x="2" y="2" class="st2" width="1" height="1"/>
	</g>
	<g>
		<rect x="2" y="3" class="st2" width="1" height="1"/>
	</g>
	<g>
		<rect x="5" y="4" class="st1" width="1" height="1"/>
	</g>
	<g>
		<rect x="5" y="5" class="st1" width="1" height="1"/>
	</g>
	<g>
		<rect x="4" y="4" class="st1" width="1" height="1"/>
	</g>
	<g>
		<rect x="4" y="5" class="st1" width="1" height="1"/>
	</g>
	<g>
		<rect x="5" y="6" class="st1" width="1" height="1"/>
	</g>
	<g>
		<rect x="5" y="7" class="st2" width="1" height="1"/>
	</g>
	<g>
		<rect x="4" y="6" class="st2" width="1" height="1"/>
	</g>
	<g>
		<rect x="4" y="7" class="st2" width="1" height="1"/>
	</g>
	<g>
		<rect x="3" y="4" class="st2" width="1" height="1"/>
	</g>
	<g>
		<rect x="3" y="5" class="st2" width="1" height="1"/>
	</g>
	<g>
		<rect x="2" y="4" class="st2" width="1" height="1"/>
	</g>
	<g>
		<rect x="2" y="5" class="st2" width="1" height="1"/>
	</g>
	<g>
		<rect x="3" y="6" class="st2" width="1" height="1"/>
	</g>
	<g>
		<rect x="3" y="7" class="st2" width="1" height="1"/>
	</g>
	<g>
		<rect x="2" y="6" class="st2" width="1" height="1"/>
	</g>
	<g>
		<rect x="2" y="7" class="st2" width="1" height="1"/>
	</g>
	<g>
		<rect x="9" y="8" class="st0" width="1" height="1"/>
	</g>
	<g>
		<rect x="9" y="9" class="st0" width="1" height="1"/>
	</g>
	<g>
		<rect x="8" y="8" class="st3" width="1" height="1"/>
	</g>
	<g>
		<rect x="8" y="9" class="st0" width="1" height="1"/>
	</g>
	<g>
		<rect x="5" y="8" class="st2" width="1" height="1"/>
	</g>
	<g>
		<rect x="5" y="9" class="st3" width="1" height="1"/>
	</g>
	<g>
		<rect x="4" y="8" class="st2" width="1" height="1"/>
	</g>
	<g>
		<rect x="4" y="9" class="st3" width="1" height="1"/>
	</g>
	<g>
		<rect x="7" y="8" class="st3" width="1" height="1"/>
	</g>
	<g>
		<rect x="7" y="9" class="st0" width="1" height="1"/>
	</g>
	<g>
		<rect x="6" y="8" class="st3" width="1" height="1"/>
	</g>
	<g>
		<rect x="6" y="9" class="st0" width="1" height="1"/>
	</g>
	<g>
		<rect x="3" y="8" class="st2" width="1" height="1"/>
	</g>
	<g>
		<rect x="3" y="9" class="st3" width="1" height="1"/>
	</g>
	<g>
		<rect x="2" y="8" class="st0" width="1" height="1"/>
	</g>
	<g>
		<rect x="2" y="9" class="st0" width="1" height="1"/>
	</g>
	<g>
		<rect x="1" class="st0" width="1" height="1"/>
	</g>
	<g>
		<rect x="1" y="1" class="st0" width="1" height="1"/>
	</g>
	<g>
		<rect class="st0" width="1" height="1"/>
	</g>
	<g>
		<rect y="1" class="st0" width="1" height="1"/>
	</g>
	<g>
		<rect x="1" y="2" class="st2" width="1" height="1"/>
	</g>
	<g>
		<rect x="1" y="3" class="st2" width="1" height="1"/>
	</g>
	<g>
		<rect y="2" class="st0" width="1" height="1"/>
	</g>
	<g>
		<rect y="3" class="st2" width="1" height="1"/>
	</g>
	<g>
		<rect x="1" y="4" class="st2" width="1" height="1"/>
	</g>
	<g>
		<rect x="1" y="5" class="st2" width="1" height="1"/>
	</g>
	<g>
		<rect y="4" class="st2" width="1" height="1"/>
	</g>
	<g>
		<rect y="5" class="st2" width="1" height="1"/>
	</g>
	<g>
		<rect x="1" y="6" class="st2" width="1" height="1"/>
	</g>
	<g>
		<rect x="1" y="7" class="st0" width="1" height="1"/>
	</g>
	<g>
		<rect y="6" class="st0" width="1" height="1"/>
	</g>
	<g>
		<rect y="7" class="st0" width="1" height="1"/>
	</g>
	<g>
		<rect x="1" y="8" class="st0" width="1" height="1"/>
	</g>
	<g>
		<rect x="1" y="9" class="st0" width="1" height="1"/>
	</g>
	<g>
		<rect y="8" class="st0" width="1" height="1"/>
	</g>
	<g>
		<rect y="9" class="st0" width="1" height="1"/>
	</g>
</g>
<g id="SE_x5F_2">
</g>
<g id="S_x5F_1">
</g>
<g id="S_x5F_2">
</g>
<g id="SW_x5F_1">
</g>
<g id="SW_x5F_2">
</g>
<g id="W_x5F_1">
</g>
<g id="W_x5F_2">
</g>
<g id="NW_x5F_1">
</g>
<g id="NW_x5F_2">
</g>
</svg>
